<?xml version="1.0" standalone="no"?>
<!DOCTYPE svg PUBLIC "-//W3C//DTD SVG 20010904//EN"
 "http://www.w3.org/TR/2001/REC-SVG-20010904/DTD/svg10.dtd">
<svg version="1.0" xmlns="http://www.w3.org/2000/svg"
 width="500.000000pt" height="500.000000pt" viewBox="0 0 500.000000 500.000000"
 preserveAspectRatio="xMidYMid meet">

<g transform="translate(0.000000,500.000000) scale(0.100000,-0.100000)"
fill="#000000" stroke="none">
<path d="M2567 3333 c-3 -5 -53 -163 -112 -353 -59 -190 -143 -460 -187 -600
-44 -140 -111 -354 -149 -476 -38 -121 -69 -226 -69 -233 0 -10 42 -12 184 -9
101 2 187 6 191 10 7 7 41 112 335 1058 101 322 185 591 187 598 4 9 -37 12
-185 12 -105 0 -193 -3 -195 -7z"/>
<path d="M1485 2926 l-460 -253 0 -168 0 -168 320 -174 c176 -96 386 -210 468
-253 l147 -78 -2 190 -3 190 -267 147 c-146 80 -263 149 -260 153 4 4 115 66
247 138 132 72 250 138 263 146 21 14 22 19 22 199 0 102 -3 185 -7 184 -5 0
-215 -114 -468 -253z"/>
<path d="M3053 3158 c-4 -7 -10 -90 -11 -184 l-4 -171 267 -148 c147 -81 263
-151 258 -156 -4 -4 -123 -71 -263 -147 l-255 -140 -3 -192 -2 -192 42 25 c24
14 189 105 368 202 179 98 348 190 375 205 28 15 74 40 103 55 l52 28 0 163 0
163 -87 49 c-228 128 -728 395 -740 395 -7 0 -13 3 -13 7 0 3 -18 16 -39 28
-31 18 -41 20 -48 10z"/>
</g>
</svg>
