<?xml version="1.0" encoding="UTF-8"?>
<svg version="1.1" xmlns="http://www.w3.org/2000/svg" width="500" height="500">
<path d="M0 0 C165 0 330 0 500 0 C500 165 500 330 500 500 C335 500 170 500 0 500 C0 335 0 170 0 0 Z " fill="#FEFEFE" transform="translate(0,0)"/>
<path d="M0 0 C3.67245134 1.39553984 7.08745311 3.03951429 10.54296875 4.90625 C11.60708984 5.47988281 12.67121094 6.05351562 13.76757812 6.64453125 C15.46043945 7.56298828 15.46043945 7.56298828 17.1875 8.5 C18.37038006 9.13943883 19.55332337 9.77876065 20.73632812 10.41796875 C27.88530234 14.28581399 35.0051583 18.20312124 42.09716797 22.17431641 C48.62695054 25.81997665 55.21940147 29.34547736 61.8125 32.875 C73.33169911 39.04642234 84.68311112 45.46489516 96 52 C96 62.89 96 73.78 96 85 C91.854375 87.206875 87.70875 89.41375 83.4375 91.6875 C74.4353635 96.49519193 65.48522236 101.37142638 56.625 106.4375 C46.38009009 112.29421927 35.99084452 117.85754749 25.55126953 123.35717773 C18.71390986 126.9684022 12.01157541 130.70231074 5.41479492 134.73681641 C3 136 3 136 0 136 C0 123.46 0 110.92 0 98 C13.90645479 90.06618925 27.87048085 82.31581093 42.03222656 74.85131836 C43.17272461 74.24682861 44.31322266 73.64233887 45.48828125 73.01953125 C46.50446533 72.48432861 47.52064941 71.94912598 48.56762695 71.39770508 C51.07811528 70.0957476 51.07811528 70.0957476 53 68 C51.68733154 67.30608154 51.68733154 67.30608154 50.34814453 66.59814453 C21.01256578 51.08366645 21.01256578 51.08366645 10.1875 45.0625 C9.47932129 44.66885254 8.77114258 44.27520508 8.04150391 43.86962891 C5.29028759 42.32853145 2.62544737 40.75029825 0 39 C-0.26653946 36.0204901 -0.34767784 33.2511418 -0.29296875 30.2734375 C-0.28872391 29.41062164 -0.28447906 28.54780579 -0.28010559 27.65884399 C-0.26328392 24.89724803 -0.22562598 22.13637617 -0.1875 19.375 C-0.17245764 17.50521886 -0.15876846 15.6354263 -0.14648438 13.765625 C-0.11336906 9.17680342 -0.06156339 4.58852456 0 0 Z " fill="#DC5850" transform="translate(303,181)"/>
<path d="M0 0 C12.87 0 25.74 0 39 0 C37.66935078 5.98792149 36.26550955 11.67018138 34.375 17.46484375 C33.98674797 18.6733474 33.98674797 18.6733474 33.59065247 19.90626526 C33.02707365 21.66018704 32.46185543 23.41358271 31.89517212 25.16650391 C30.3195281 30.04389378 28.75933391 34.92621845 27.19921875 39.80859375 C26.86444016 40.85586639 26.52966156 41.90313904 26.18473816 42.98214722 C21.98903457 56.13240369 17.89922251 69.3155505 13.8125 82.5 C13.42798676 83.739776 13.04347351 84.979552 12.64730835 86.25689697 C7.77060213 101.98544696 2.93753578 117.72661828 -1.84667969 133.48352051 C-5.36493637 145.06043246 -9.09564465 156.5472243 -13 168 C-25.87 168 -38.74 168 -52 168 C-48.62521881 155.62580232 -48.62521881 155.62580232 -47.0456543 150.59033203 C-46.51234497 148.88485703 -46.51234497 148.88485703 -45.96826172 147.14492798 C-45.59072754 145.94467987 -45.21319336 144.74443176 -44.82421875 143.5078125 C-44.41835197 142.21224711 -44.01267657 140.91662176 -43.60717773 139.62094116 C-42.74831674 136.8778777 -41.88825667 134.1351945 -41.02719116 131.39282227 C-39.66884068 127.06655545 -38.31325889 122.7394244 -36.95825195 118.41210938 C-36.50120777 116.95257496 -36.04416126 115.49304126 -35.58711243 114.0335083 C-35.24833793 112.95165127 -35.24833793 112.95165127 -34.9027195 111.84793854 C-34.21901231 109.66490005 -33.53504155 107.48194431 -32.85099792 105.29901123 C-29.11357915 93.3710495 -25.39578073 81.43705262 -21.6875 69.5 C-14.48551312 46.32483904 -7.24386313 23.16210017 0 0 Z " fill="#3F5C62" transform="translate(256,166)"/>
<path d="M0 0 C0 12.87 0 25.74 0 39 C-12.07923892 45.89136067 -24.18514788 52.71009613 -36.43103027 59.29977417 C-37.68561093 59.97506871 -38.93943704 60.65176693 -40.19250488 61.3298645 C-41.95538333 62.28291957 -43.72175727 63.22950042 -45.48828125 64.17578125 C-46.50446533 64.72145752 -47.52064941 65.26713379 -48.56762695 65.8293457 C-51 67 -51 67 -53 67 C-50.94716045 69.21590086 -49.05036253 70.662895 -46.359375 72.0234375 C-45.26459839 72.58587158 -45.26459839 72.58587158 -44.14770508 73.15966797 C-43.3564624 73.56072754 -42.56521973 73.96178711 -41.75 74.375 C-33.01307019 78.87948641 -24.44770403 83.64659674 -15.91894531 88.53271484 C-14.54561035 89.31702881 -14.54561035 89.31702881 -13.14453125 90.1171875 C-12.34378174 90.57722168 -11.54303223 91.03725586 -10.71801758 91.51123047 C-7.19762225 93.43949515 -3.59014072 95.20492964 0 97 C0 109.87 0 122.74 0 136 C-4.10313554 134.63228815 -6.92395358 133.6449964 -10.4921875 131.55859375 C-11.34554687 131.06617188 -12.19890625 130.57375 -13.078125 130.06640625 C-14.00109375 129.52886719 -14.9240625 128.99132812 -15.875 128.4375 C-25.48145371 122.9194326 -35.19973829 117.66279987 -45 112.5 C-56.44961295 106.46276822 -67.78630333 100.26584308 -79.01953125 93.83203125 C-84.310234 90.82359243 -89.65692245 87.91440594 -95 85 C-95 74.11 -95 63.22 -95 52 C-86.55502428 47.17429959 -78.12988714 42.40206664 -69.5625 37.8125 C-61.56989381 33.50965872 -53.63478278 29.12219526 -45.75 24.625 C-35.67082799 18.87924405 -25.47113037 13.3774404 -15.22558594 7.93603516 C-14.09668945 7.33581543 -12.96779297 6.7355957 -11.8046875 6.1171875 C-10.80421387 5.58722168 -9.80374023 5.05725586 -8.77294922 4.51123047 C-6.89107495 3.48562722 -5.0332422 2.41488817 -3.19970703 1.30517578 C-1 0 -1 0 0 0 Z " fill="#DD574F" transform="translate(196,181)"/>
<path d="M0 0 C3.67245134 1.39553984 7.08745311 3.03951429 10.54296875 4.90625 C11.60708984 5.47988281 12.67121094 6.05351562 13.76757812 6.64453125 C15.46043945 7.56298828 15.46043945 7.56298828 17.1875 8.5 C18.37038006 9.13943883 19.55332337 9.77876065 20.73632812 10.41796875 C27.88155579 14.28378698 34.99725769 18.19975231 42.08618164 22.16772461 C48.72593541 25.87368615 55.4243971 29.46801027 62.125 33.0625 C71.81617506 38.26178518 81.44950848 43.5466982 91 49 C90.50242187 49.24492187 90.00484375 49.48984375 89.4921875 49.7421875 C86.0154284 51.49691545 82.56994633 53.30875543 79.125 55.125 C78.37702148 55.5173584 77.62904297 55.9097168 76.85839844 56.31396484 C73.16792787 58.26401638 69.52224326 60.25407395 65.9453125 62.40625 C65.00727783 62.96675049 65.00727783 62.96675049 64.05029297 63.53857422 C62.34389622 64.56833629 60.64816347 65.61570932 58.953125 66.6640625 C55.46760103 68.24084715 54.59839532 68.04164926 51 67 C48.82939938 65.98216548 46.69250457 64.89118217 44.58203125 63.75390625 C43.97121704 63.42689224 43.36040283 63.09987823 42.7310791 62.76295471 C40.75468086 61.70256704 38.78352988 60.63282815 36.8125 59.5625 C35.45685142 58.83209793 34.10097479 58.10211895 32.74487305 57.37255859 C5.68430604 42.78953736 5.68430604 42.78953736 0 39 C-0.26653946 36.0204901 -0.34767784 33.2511418 -0.29296875 30.2734375 C-0.28872391 29.41062164 -0.28447906 28.54780579 -0.28010559 27.65884399 C-0.26328392 24.89724803 -0.22562598 22.13637617 -0.1875 19.375 C-0.17245764 17.50521886 -0.15876846 15.6354263 -0.14648438 13.765625 C-0.11336906 9.17680342 -0.06156339 4.58852456 0 0 Z " fill="#CC4C4D" transform="translate(303,181)"/>
<path d="M0 0 C3.93820187 1.54771864 7.62643494 3.36541329 11.33984375 5.390625 C12.15171143 5.8252002 12.9635791 6.25977539 13.80004883 6.70751953 C21.59488278 10.90841636 29.30013501 15.27310767 36.98413086 19.67285156 C37.8994458 20.19588867 38.81476074 20.71892578 39.7578125 21.2578125 C40.95893677 21.94786377 40.95893677 21.94786377 42.18432617 22.65185547 C45.7047215 24.58012015 49.31220303 26.34555464 52.90234375 28.140625 C52.90234375 41.010625 52.90234375 53.880625 52.90234375 67.140625 C48.79920821 65.77291315 45.97839017 64.7856214 42.41015625 62.69921875 C41.55679688 62.20679688 40.7034375 61.714375 39.82421875 61.20703125 C38.90125 60.66949219 37.97828125 60.13195312 37.02734375 59.578125 C27.42088386 54.06005405 17.70255147 48.80353657 7.90234375 43.640625 C-5.2381319 36.71112216 -18.21657795 29.5437717 -31.09765625 22.140625 C-32.4711105 21.35504259 -33.84478179 20.56983942 -35.21875 19.78515625 C-36.16878906 19.24246094 -37.11882812 18.69976562 -38.09765625 18.140625 C-37.53320801 18.02291748 -36.96875977 17.90520996 -36.38720703 17.78393555 C-33.86501182 17.07525732 -31.78417463 16.06512872 -29.46484375 14.84765625 C-28.57539062 14.38166016 -27.6859375 13.91566406 -26.76953125 13.43554688 C-25.38507813 12.70174805 -25.38507813 12.70174805 -23.97265625 11.953125 C-23.07289062 11.48326172 -22.173125 11.01339844 -21.24609375 10.52929688 C-16.62216829 8.09442808 -12.17929505 5.55716347 -7.79296875 2.71484375 C-4.83276986 0.93744508 -3.489265 0.15840295 0 0 Z " fill="#CC4C4D" transform="translate(143.09765625,249.859375)"/>
<path d="M0 0 C5 2 5 2 7 3 C6.67 3.66 6.34 4.32 6 5 C3.525 4.01 3.525 4.01 1 3 C1 14.88 1 26.76 1 39 C0.67 39 0.34 39 0 39 C0 26.13 0 13.26 0 0 Z " fill="#D27A6E" transform="translate(303,181)"/>
<path d="M0 0 C0 12.87 0 25.74 0 39 C-0.33 39 -0.66 39 -1 39 C-1.495 21.675 -1.495 21.675 -2 4 C-3.32 3.67 -4.64 3.34 -6 3 C-1.125 0 -1.125 0 0 0 Z " fill="#CA5E58" transform="translate(196,181)"/>
<path d="M0 0 C1.32 0.33 2.64 0.66 4 1 C3.67 1.66 3.34 2.32 3 3 C2.34 3 1.68 3 1 3 C1.16749756 3.85158691 1.33499512 4.70317383 1.50756836 5.58056641 C2.00837763 9.05817405 2.02369761 12.20376904 1.87890625 15.7109375 C1.83056641 16.95488281 1.78222656 18.19882813 1.73242188 19.48046875 C1.67634766 20.76566406 1.62027344 22.05085938 1.5625 23.375 C1.51029297 24.68339844 1.45808594 25.99179688 1.40429688 27.33984375 C1.27501407 30.56016078 1.1400631 33.7801368 1 37 C0.67 37 0.34 37 0 37 C0 24.79 0 12.58 0 0 Z " fill="#D6615A" transform="translate(304,184)"/>
<path d="M0 0 C0.33 0.66 0.66 1.32 1 2 C-0.38552202 3.01423834 -1.78394288 4.01087002 -3.1875 5 C-3.96480469 5.556875 -4.74210938 6.11375 -5.54296875 6.6875 C-8.28336637 8.151369 -9.94100837 8.26080213 -13 8 C-10.20375042 5.81302498 -7.36692128 4.00847187 -4.25 2.3125 C-3.45078125 1.87550781 -2.6515625 1.43851563 -1.828125 0.98828125 C-1.22484375 0.66214844 -0.6215625 0.33601562 0 0 Z " fill="#D36863" transform="translate(153,204)"/>
<path d="M0 0 C3.96 1.98 7.92 3.96 12 6 C12 6.33 12 6.66 12 7 C7.75776898 7.3636198 5.41831915 6.5393228 2 4 C2 3.34 2 2.68 2 2 C1.34 2 0.68 2 0 2 C0 1.34 0 0.68 0 0 Z " fill="#D96F66" transform="translate(311,185)"/>
<path d="M0 0 C5.875 0.875 5.875 0.875 7 2 C7.66 1.34 8.32 0.68 9 0 C9 1.65 9 3.3 9 5 C5.22454612 3.90931332 2.52956528 3.0916909 0 0 Z " fill="#DE6B5D" transform="translate(187,312)"/>
<path d="M0 0 C0.66 0.33 1.32 0.66 2 1 C-0.51830747 4.12270126 -1.7261549 4.94523098 -5.75 5.75 C-7.35875 5.87375 -7.35875 5.87375 -9 6 C-6.12050853 3.76039553 -3.23257974 1.70135776 0 0 Z " fill="#D26963" transform="translate(118,223)"/>
<path d="M0 0 C1.32 0.33 2.64 0.66 4 1 C3.67 1.66 3.34 2.32 3 3 C2.34 3 1.68 3 1 3 C1.33 4.98 1.66 6.96 2 9 C1.34 9 0.68 9 0 9 C0 6.03 0 3.06 0 0 Z " fill="#E86352" transform="translate(304,184)"/>
<path d="M0 0 C0 0.99 0 1.98 0 3 C-2.97 4.32 -5.94 5.64 -9 7 C-9 6.34 -9 5.68 -9 5 C-6.03 3.35 -3.06 1.7 0 0 Z " fill="#D46863" transform="translate(175,192)"/>
<path d="M0 0 C2.8125 -0.3125 2.8125 -0.3125 6 0 C7.875 2.5 7.875 2.5 9 5 C5.54074837 3.7508258 2.85306797 2.32472205 0 0 Z " fill="#C35C5D" transform="translate(317,227)"/>
</svg>
